<?xml version="1.0" ?><svg viewBox="0 0 64 64" xmlns="http://www.w3.org/2000/svg"><g data-name="23-Christmas cake" id="_23-Christmas_cake"><path d="M59,59v2a2.006,2.006,0,0,1-2,2H7a2.006,2.006,0,0,1-2-2V59H59Z" style="fill:#e8a96b"/><path d="M26.04,13.32a3.992,3.992,0,0,1,4.05-1.17,4,4,0,0,1,2.88,3.41,3.841,3.841,0,0,0-1.03.86A4.041,4.041,0,0,0,31,19a3.253,3.253,0,0,0,.03.44A3.918,3.918,0,0,1,29,20a3.965,3.965,0,0,1-3.63-2.35A3.8,3.8,0,0,1,25,16,3.951,3.951,0,0,1,26.04,13.32Z" style="fill:#fb243d"/><path d="M35,15a3.918,3.918,0,0,0-2.03.56,4,4,0,0,0-2.88-3.41A4,4,0,0,1,34,9a3.944,3.944,0,0,1,1.19.18.035.035,0,0,0,.02.01,3.917,3.917,0,0,1,1.91,1.32h.01a4,4,0,0,1-.07,5.07A3.921,3.921,0,0,0,35,15Z" style="fill:#e72139"/><path d="M35,15a4,4,0,0,1,3.79,2.76,1.336,1.336,0,0,1,.07.18A4.05,4.05,0,0,1,39,19a4,4,0,0,1-7.97.44A3.253,3.253,0,0,1,31,19a4.041,4.041,0,0,1,.94-2.58,3.841,3.841,0,0,1,1.03-.86A3.918,3.918,0,0,1,35,15Z" style="fill:#fb243d"/><path d="M25.371,17.65A3.965,3.965,0,0,0,29,20a3.918,3.918,0,0,0,2.03-.56A4,4,0,0,0,39,19a4.05,4.05,0,0,0-.14-1.06,25.448,25.448,0,0,1,18.5,20.97c.63,4.61,1.22,8.92,1.61,11.75a2.934,2.934,0,0,1-1.09,2.7h-.01A3.02,3.02,0,0,1,56,54h-.09a2.87,2.87,0,0,1-2.87-2.52L51.52,38.77a2.037,2.037,0,0,0-4.05.44l.51,5.11a2.175,2.175,0,0,1,.01.25A2.454,2.454,0,0,1,45.52,47,2.268,2.268,0,0,1,43,45c-.19-3.41-.5-10.09-.7-13.57A2.594,2.594,0,0,0,39.681,29h-.06c-1.4,0-2.62.62-2.62,2v9a3.01,3.01,0,0,1-.85,2.12,2.934,2.934,0,0,1-2.11.88,3.02,3.02,0,0,1-3.05-3V36a2.96,2.96,0,0,0-.89-2.12,3.106,3.106,0,0,0-2.16-.88A2.933,2.933,0,0,0,25,36V49a3.936,3.936,0,0,1-1.22,2.81A4.089,4.089,0,0,1,20.921,53,3.828,3.828,0,0,1,17,49l.639-14.67v-.14a3.251,3.251,0,0,0-6.439-.57c-.36,1.94-.84,4.55-1.17,6.34A2.509,2.509,0,0,1,7.532,42h-.06a1.77,1.77,0,0,1-.23-.01,2.43,2.43,0,0,1-2.21-2.8,3.062,3.062,0,0,0,.05-.32,26.108,26.108,0,0,1,19.349-21h.02C24.751,17.78,25.061,17.71,25.371,17.65Z" style="fill:#fcf0db"/><path d="M7.472,42h.06a2.509,2.509,0,0,0,2.5-2.04c.33-1.79.81-4.4,1.17-6.34a3.251,3.251,0,0,1,6.439.57v.14L17,49a3.828,3.828,0,0,0,3.919,4,4.089,4.089,0,0,0,2.86-1.19A3.936,3.936,0,0,0,25,49V36a2.933,2.933,0,0,1,2.94-3,3.106,3.106,0,0,1,2.16.88,2.96,2.96,0,0,1,.89,2.12v4a3.02,3.02,0,0,0,3.05,3,2.934,2.934,0,0,0,2.11-.88A3.01,3.01,0,0,0,37,40V31c0-1.38,1.22-2,2.62-2h.06a2.594,2.594,0,0,1,2.62,2.43c.2,3.48.51,10.16.7,13.57a2.268,2.268,0,0,0,2.519,2,2.454,2.454,0,0,0,2.47-2.43,2.175,2.175,0,0,0-.01-.25l-.51-5.11a2.037,2.037,0,0,1,4.05-.44l1.52,12.71A2.87,2.87,0,0,0,55.91,54H56a3.02,3.02,0,0,0,1.87-.64h.01l.16,1.67A3.836,3.836,0,0,1,53.99,59H10.032a3.831,3.831,0,0,1-4.05-3.97L7.242,42v-.01A1.77,1.77,0,0,0,7.472,42Z" style="fill:#76240c"/><path d="M29,9s-2,2-4,2a3.54,3.54,0,0,0,1.04,2.32A3.951,3.951,0,0,0,25,16a3.8,3.8,0,0,0,.37,1.65c-.31.06-.62.13-.92.22h-.02a10.661,10.661,0,0,1-4.37-.18c1.38-1.37,1.38-4.12,1.38-4.12C19.38,11.5,18,11.5,18,11.5,20.06,9.44,18,6,18,6s3.44,2.06,5.5,0c0,0,0,1.38,2.07,3.44a7.746,7.746,0,0,0,3.42-.85C29,8.72,29,8.86,29,9Z" style="fill:#147e30"/><path d="M29,12a3.949,3.949,0,0,0-2.96,1.32A3.54,3.54,0,0,1,25,11c2,0,4-2,4-2,0-.14,0-.28-.01-.41C28.91,5.91,28,5,28,5c3,0,4-4,4-4s1,4,4,4c0,0-.91.91-.99,3.59C35,8.72,35,8.86,35,9c0,0,.07.07.19.18A3.944,3.944,0,0,0,34,9a4,4,0,0,0-3.91,3.15A3.931,3.931,0,0,0,29,12Z" style="fill:#3ea01f"/><path d="M35.01,8.59a7.746,7.746,0,0,0,3.42.85C40.5,7.38,40.5,6,40.5,6,42.56,8.06,46,6,46,6s-2.06,3.44,0,5.5c0,0-1.38,0-3.44,2.07,0,0,0,2.75,1.38,4.12a11.435,11.435,0,0,1-5.15.07,3.911,3.911,0,0,0-1.73-2.18,4,4,0,0,0,.07-5.07h-.01a3.917,3.917,0,0,0-1.91-1.32.035.035,0,0,1-.02-.01C35.07,9.07,35,9,35,9,35,8.86,35,8.72,35.01,8.59Z" style="fill:#147e30"/><path d="M28,5s.91.91.99,3.59c.01.13.01.27.01.41,0,0-2,2-4,2a3.54,3.54,0,0,0,1.04,2.32,3.992,3.992,0,0,1,4.05-1.17A4.007,4.007,0,0,1,32,9.537V1S31,5,28,5Z" style="fill:#30912c"/><path d="M37.8,14.2a4.111,4.111,0,0,1-.742,1.382,3.911,3.911,0,0,1,1.73,2.18,11.435,11.435,0,0,0,5.15-.07c-1.38-1.37-1.38-4.12-1.38-4.12C44.62,11.5,46,11.5,46,11.5,43.94,9.44,46,6,46,6Z" style="fill:#0b6823"/><path d="M18,6s2.06,3.44,0,5.5c0,0,1.38,0,3.44,2.07,0,0,0,2.75-1.38,4.12a10.661,10.661,0,0,0,4.37.18h.02c.3-.09.61-.16.92-.22A3.8,3.8,0,0,1,25,16a3.93,3.93,0,0,1,.729-2.271Z" style="fill:#0b6823"/><path d="M36,21a3.99,3.99,0,0,1-3.97-3.56A3.253,3.253,0,0,1,32,17a3.97,3.97,0,0,1,.064-.7c-.04.043-.085.078-.124.123A4.041,4.041,0,0,0,31,19a3.253,3.253,0,0,0,.03.44,3.992,3.992,0,0,0,7.9.268A3.976,3.976,0,0,1,36,21Z" style="fill:#df1c33"/><path d="M34.041,40a3.02,3.02,0,0,1-3.05-3v3a3.02,3.02,0,0,0,3.05,3,2.934,2.934,0,0,0,2.11-.88A3.01,3.01,0,0,0,37,40V37a3.01,3.01,0,0,1-.85,2.12A2.934,2.934,0,0,1,34.041,40Z" style="fill:#f3dab4"/><path d="M30.1,30.88a3.106,3.106,0,0,0-2.16-.88A2.933,2.933,0,0,0,25,33v3a2.933,2.933,0,0,1,2.94-3,3.106,3.106,0,0,1,2.16.88,2.96,2.96,0,0,1,.89,2.12V33A2.96,2.96,0,0,0,30.1,30.88Z" style="fill:#f3dab4"/><path d="M20.921,50a3.841,3.841,0,0,1-3.831-3.035L17,49a3.828,3.828,0,0,0,3.919,4,4.089,4.089,0,0,0,2.86-1.19A3.936,3.936,0,0,0,25,49V46a3.936,3.936,0,0,1-1.22,2.81A4.089,4.089,0,0,1,20.921,50Z" style="fill:#f3dab4"/><path d="M45.521,44A2.269,2.269,0,0,1,43,42c-.19-3.41-.5-10.09-.7-13.57A2.594,2.594,0,0,0,39.681,26h-.06c-1.4,0-2.62.62-2.62,2v3c0-1.38,1.22-2,2.62-2h.06a2.594,2.594,0,0,1,2.62,2.43c.2,3.48.51,10.16.7,13.57a2.269,2.269,0,0,0,2.52,2,2.454,2.454,0,0,0,2.469-2.43,2.175,2.175,0,0,0-.01-.25L47.8,42.5A2.47,2.47,0,0,1,45.521,44Z" style="fill:#f3dab4"/><path d="M17.641,31.19a3.251,3.251,0,0,0-6.439-.57c-.36,1.94-.84,4.55-1.17,6.34A2.509,2.509,0,0,1,7.532,39h-.06a1.77,1.77,0,0,1-.23-.01A2.45,2.45,0,0,1,5.31,37.739c-.079.376-.166.749-.228,1.131a3.062,3.062,0,0,1-.05.32,2.43,2.43,0,0,0,2.21,2.8,1.77,1.77,0,0,0,.23.01h.06a2.509,2.509,0,0,0,2.5-2.04c.33-1.79.81-4.4,1.17-6.34a3.254,3.254,0,0,1,6.347-.159l.092-2.131Z" style="fill:#f3dab4"/><path d="M58.768,49.191a3.029,3.029,0,0,1-.888,1.169h-.01A3.02,3.02,0,0,1,56,51h-.09a2.87,2.87,0,0,1-2.87-2.52L51.52,35.77a2.037,2.037,0,0,0-4.05.44l.194,1.942a2.038,2.038,0,0,1,3.856.618l1.52,12.71A2.87,2.87,0,0,0,55.91,54H56a3.02,3.02,0,0,0,1.87-.64h.01a2.934,2.934,0,0,0,1.09-2.7C58.908,50.21,58.839,49.711,58.768,49.191Z" style="fill:#f3dab4"/><path d="M34.041,46a2.934,2.934,0,0,0,2.11-.88A3.01,3.01,0,0,0,37,43V40a3.01,3.01,0,0,1-.85,2.12,2.934,2.934,0,0,1-2.11.88,3.02,3.02,0,0,1-3.05-3v3A3.02,3.02,0,0,0,34.041,46Z" style="fill:#612206"/><path d="M39.621,32h.06a2.594,2.594,0,0,1,2.62,2.43c.2,3.48.51,10.16.7,13.57a2.269,2.269,0,0,0,2.52,2,2.454,2.454,0,0,0,2.469-2.43,2.175,2.175,0,0,0-.01-.25L47.8,45.5A2.47,2.47,0,0,1,45.521,47,2.269,2.269,0,0,1,43,45c-.19-3.41-.5-10.09-.7-13.57A2.594,2.594,0,0,0,39.681,29h-.06c-1.4,0-2.62.62-2.62,2v3C37,32.62,38.221,32,39.621,32Z" style="fill:#612206"/><path d="M27.941,36a3.106,3.106,0,0,1,2.16.88,2.96,2.96,0,0,1,.89,2.12V36a2.96,2.96,0,0,0-.89-2.12,3.106,3.106,0,0,0-2.16-.88A2.933,2.933,0,0,0,25,36v3A2.933,2.933,0,0,1,27.941,36Z" style="fill:#612206"/><path d="M57.88,53.36h-.01A3.02,3.02,0,0,1,56,54h-.09a2.87,2.87,0,0,1-2.87-2.52L51.52,38.77a2.037,2.037,0,0,0-4.05.44l.194,1.942a2.038,2.038,0,0,1,3.856.618l1.52,12.71A2.87,2.87,0,0,0,55.91,57H56a3.02,3.02,0,0,0,1.87-.64h.007a3.3,3.3,0,0,0,.163-1.33Z" style="fill:#612206"/><path d="M20.921,56a4.089,4.089,0,0,0,2.86-1.19A3.936,3.936,0,0,0,25,52V49a3.936,3.936,0,0,1-1.22,2.81A4.089,4.089,0,0,1,20.921,53a3.841,3.841,0,0,1-3.831-3.035L17,52A3.828,3.828,0,0,0,20.921,56Z" style="fill:#612206"/><path d="M32.97,15.56a4,4,0,0,0-.1-.551,3.912,3.912,0,0,0-1.9.551,3.841,3.841,0,0,0-1.03.86l-.009.011a1.939,1.939,0,0,1-2.31.619,4.521,4.521,0,0,1-2.412-2.277A3.929,3.929,0,0,0,25,16a3.8,3.8,0,0,0,.37,1.65A3.965,3.965,0,0,0,29,20c.048,0,.093-.008.141-.01a3.909,3.909,0,0,0,1.889-.55A3.253,3.253,0,0,1,31,19a4.041,4.041,0,0,1,.94-2.58A3.841,3.841,0,0,1,32.97,15.56Z" style="fill:#bf1b2e"/><path d="M49.2,31.1a2.987,2.987,0,0,0,1.833-4.632,20.105,20.105,0,0,0-12.12-8.284A4.062,4.062,0,0,1,39,19a4,4,0,0,1-7.97.44A3.918,3.918,0,0,1,29,20a3.965,3.965,0,0,1-3.63-2.35c-.31.06-.62.13-.92.22h-.02a26.893,26.893,0,0,0-3.937,1.369C16.689,21.1,12.12,24.08,11,28a4.823,4.823,0,0,0,.7,4.431A3.263,3.263,0,0,1,14.4,31a3.215,3.215,0,0,1,3.239,3.19v.14l-.03.708c1.932.009,3.7-.656,4.389-2.038q3-6,9-6c1.926,0,3.852,2.316,6,4.274V31c0-1.38,1.22-2,2.62-2h.06a2.594,2.594,0,0,1,2.62,2.43c.041.715.087,1.571.135,2.5A5.175,5.175,0,0,0,45,33,12.393,12.393,0,0,1,49.2,31.1Z" style="fill:#fff6e8"/><path d="M58,61H12a2,2,0,0,1-2-2H5v2a2.006,2.006,0,0,0,2,2H57a2.006,2.006,0,0,0,2-2V60A1,1,0,0,1,58,61Z" style="fill:#c08247"/><path d="M57.96,54.2A1.994,1.994,0,0,1,55.979,56L19.7,55.975a7.987,7.987,0,0,1-7.929-8.926c.337-2.839.72-5.672,1.124-8.5q.188-1.317.383-2.635c.053-.359.052-.778.141-1.123A1.18,1.18,0,0,1,14.481,34a3.285,3.285,0,0,1,1.4.351,3.247,3.247,0,0,1,1.074.881,2.413,2.413,0,0,1,.6,1.228l.092-2.131v-.14A3.215,3.215,0,0,0,14.4,31c-.13,0-.253.023-.376.033-.028,0-.053.011-.08.015a.567.567,0,0,0-.162.032A3.2,3.2,0,0,0,11.2,33.62c-.36,1.94-.84,4.55-1.17,6.34A2.509,2.509,0,0,1,7.532,42h-.29L5.982,55.03A3.831,3.831,0,0,0,10.032,59H53.99a3.836,3.836,0,0,0,4.05-3.97Z" style="fill:#612206"/><path d="M25.37,20.65A3.965,3.965,0,0,0,29,23a3.918,3.918,0,0,0,2.03-.56A4,4,0,0,0,39,22a4.05,4.05,0,0,0-.14-1.06,1.336,1.336,0,0,0-.07-.18c-.025-.079-.066-.151-.1-.228a4,4,0,0,1-7.663-1.092A3.918,3.918,0,0,1,29,20a3.965,3.965,0,0,1-3.63-2.35c-.046.009-.09.023-.136.033A3.94,3.94,0,0,0,25,19,3.8,3.8,0,0,0,25.37,20.65Z" style="fill:#f3dab4"/><path d="M31,19a4.041,4.041,0,0,1,.94-2.58,3.841,3.841,0,0,1,1.03-.86,3.954,3.954,0,0,1,4.09.02,4,4,0,1,1-6.03,3.86A3.253,3.253,0,0,1,31,19Z" style="fill:none;stroke:#000;stroke-linejoin:round;stroke-width:2px"/><path d="M31.03,19.44A3.918,3.918,0,0,1,29,20a4,4,0,0,1,0-8,3.931,3.931,0,0,1,1.09.15,4,4,0,0,1,2.88,3.41" style="fill:none;stroke:#000;stroke-linejoin:round;stroke-width:2px"/><path d="M30.09,12.15a4,4,0,1,1,6.97,3.43" style="fill:none;stroke:#000;stroke-linejoin:round;stroke-width:2px"/><path d="M28.99,8.59a7.746,7.746,0,0,1-3.42.85C23.5,7.38,23.5,6,23.5,6,21.44,8.06,18,6,18,6s2.06,3.44,0,5.5c0,0,1.38,0,3.44,2.07,0,0,0,2.75-1.38,4.12a9.239,9.239,0,0,0,2.94.3" style="fill:none;stroke:#000;stroke-linejoin:round;stroke-width:2px"/><path d="M35.01,8.59a7.746,7.746,0,0,0,3.42.85C40.5,7.38,40.5,6,40.5,6,42.56,8.06,46,6,46,6s-2.06,3.44,0,5.5c0,0-1.38,0-3.44,2.07,0,0,0,2.75,1.38,4.12a11.435,11.435,0,0,1-5.15.07" style="fill:none;stroke:#000;stroke-linejoin:round;stroke-width:2px"/><line style="fill:none;stroke:#000;stroke-linejoin:round;stroke-width:2px" x1="37.13" x2="37.12" y1="10.51" y2="10.51"/><path d="M26.04,13.32A3.54,3.54,0,0,1,25,11c2,0,4-2,4-2,0-.14,0-.28-.01-.41C28.91,5.91,28,5,28,5c3,0,4-4,4-4s1,4,4,4c0,0-.91.91-.99,3.59C35,8.72,35,8.86,35,9c0,0,.07.07.19.18a.035.035,0,0,0,.02.01" style="fill:none;stroke:#000;stroke-linejoin:round;stroke-width:2px"/><path d="M6.662,48l-.681,7.031A3.832,3.832,0,0,0,10.029,59h43.96a3.831,3.831,0,0,0,4.048-3.969L57.841,53" style="fill:none;stroke:#000;stroke-linejoin:round;stroke-width:2px"/><line style="fill:none;stroke:#000;stroke-linejoin:round;stroke-width:2px" x1="7" x2="6.855" y1="44.502" y2="46"/><path d="M15.6,22A25.8,25.8,0,0,0,5.082,38.87a3.062,3.062,0,0,1-.05.32A2.439,2.439,0,0,0,7.472,42h.06a2.509,2.509,0,0,0,2.5-2.04c.33-1.79.81-4.4,1.17-6.34a3.251,3.251,0,0,1,6.44.57v.14L17,49a3.829,3.829,0,0,0,3.92,4,4.089,4.089,0,0,0,2.86-1.19A3.936,3.936,0,0,0,25,49V36a2.933,2.933,0,0,1,2.94-3,3.106,3.106,0,0,1,2.16.88,2.96,2.96,0,0,1,.89,2.12v4a3.02,3.02,0,0,0,3.05,3,2.934,2.934,0,0,0,2.11-.88A3.01,3.01,0,0,0,37,40V31c0-1.38,1.22-2,2.62-2h.06a2.594,2.594,0,0,1,2.62,2.43c.2,3.48.51,10.16.7,13.57a2.269,2.269,0,0,0,2.52,2,2.454,2.454,0,0,0,2.47-2.43,2.175,2.175,0,0,0-.01-.25l-.51-5.11a2.037,2.037,0,0,1,4.05-.44l1.52,12.71A2.87,2.87,0,0,0,55.912,54H56a3.02,3.02,0,0,0,1.87-.64h.01a2.934,2.934,0,0,0,1.09-2.7c-.39-2.83-.98-7.14-1.61-11.75A25.315,25.315,0,0,0,44.043,20" style="fill:none;stroke:#000;stroke-linejoin:round;stroke-width:2px"/><path d="M19,19.933q-.972.5-1.9,1.067" style="fill:none;stroke:#000;stroke-linejoin:round;stroke-width:2px"/><path d="M5,59H59a0,0,0,0,1,0,0v2a2,2,0,0,1-2,2H7a2,2,0,0,1-2-2V59A0,0,0,0,1,5,59Z" style="fill:none;stroke:#000;stroke-linejoin:round;stroke-width:2px"/></g></svg>