<?xml version="1.0" ?><svg fill="none" height="96" viewBox="0 0 96 96" width="96" xmlns="http://www.w3.org/2000/svg"><path d="M54.1705 61.1259C65.4838 66.0961 77.8359 62.8848 81.7597 53.9532C85.9005 44.6664 76.5016 35.8411 71.2846 32.5894C58.5666 23.1687 46.7737 26.631 45.0625 29.3126L40.7906 35.9547C36.8668 44.8862 42.8572 56.1558 54.1705 61.1259Z" fill="#935427"/><path clip-rule="evenodd" d="M39.023 35.0056L43.3765 28.2367C43.3773 28.2356 43.378 28.2344 43.3788 28.2332C44.1708 26.9951 45.7485 26.0851 47.4175 25.4861C49.1955 24.848 51.4548 24.4253 54.0362 24.4127C59.2056 24.3874 65.7288 26.0056 72.4111 30.935C75.1907 32.6802 79.0415 35.8674 81.7018 39.9084C84.3957 44.0005 86.0366 49.2667 83.5886 54.7626C79.0515 65.0813 65.2616 68.1831 53.366 62.9571C41.4685 57.7302 34.4246 45.4729 38.9595 35.1502L39.023 35.0056ZM81.7597 53.9532C85.9004 44.6664 76.5016 35.8411 71.2846 32.5894C58.5666 23.1687 46.7737 26.6311 45.0625 29.3126L40.7906 35.9547C36.8668 44.8862 42.8571 56.1558 54.1704 61.126C65.4837 66.0961 77.8359 62.8848 81.7597 53.9532Z" fill="#62310F" fill-rule="evenodd"/><path d="M84.1149 50.4206C80.191 59.3521 67.8389 62.5635 56.5256 57.5933C45.2123 52.6231 39.2219 41.3536 43.1458 32.422C47.0696 23.4905 59.4217 20.2791 70.735 25.2493C82.0483 30.2194 88.0387 41.489 84.1149 50.4206Z" fill="#AE6937"/><path clip-rule="evenodd" d="M85.9459 51.225C81.411 61.5476 67.6187 64.6512 55.7212 59.4244C43.8236 54.1976 36.7797 41.9402 41.3147 31.6176C45.8496 21.295 59.6419 18.1914 71.5394 23.4182C83.4369 28.645 90.4809 40.9024 85.9459 51.225ZM56.5256 57.5933C67.8389 62.5635 80.191 59.3521 84.1148 50.4206C88.0387 41.489 82.0483 30.2195 70.735 25.2493C59.4217 20.2791 47.0696 23.4905 43.1457 32.422C39.2219 41.3536 45.2123 52.6232 56.5256 57.5933Z" fill="#784018" fill-rule="evenodd"/><path clip-rule="evenodd" d="M59.375 25C53.3713 25 48.5264 28.4115 46.9028 30.0737C46.5169 30.4688 45.8838 30.4763 45.4887 30.0904C45.0936 29.7045 45.0862 29.0714 45.4721 28.6763C47.3486 26.7551 52.6786 23 59.375 23C59.9273 23 60.375 23.4477 60.375 24C60.375 24.5523 59.9273 25 59.375 25Z" fill="#975728" fill-rule="evenodd"/><path clip-rule="evenodd" d="M63.3029 59.6038C69.103 58.6129 73.9234 55.4089 76.1148 50.4206C80.0387 41.489 74.0483 30.2195 62.735 25.2493C60.4921 24.264 58.2084 23.6002 55.9577 23.2388C60.5428 22.4554 65.7401 23.055 70.735 25.2493C82.0483 30.2195 88.0387 41.489 84.1148 50.4206C80.9689 57.5815 72.4053 61.0654 63.3029 59.6038Z" fill="#93592E" fill-rule="evenodd"/><path d="M37.1562 73.1232C48.6863 68.6789 55.1888 57.6969 51.6802 48.5943C48.1715 39.4916 22.9062 40.4307 11.3762 44.875L11.3762 50.9742C14.5049 53.1238 16.5267 56.5345 16.5267 60.3745C16.5267 60.8212 16.4994 61.2621 16.4461 61.6958C19.8022 62.1212 22.8483 63.872 24.6965 66.7924C26.2657 69.272 26.7032 72.171 26.1556 74.9576C29.6845 75.1296 33.4544 74.5501 37.1562 73.1232Z" fill="#B8692F"/><path clip-rule="evenodd" d="M9.37617 44.8751C9.37617 44.048 9.88518 43.3063 10.6568 43.0089C16.7322 40.6671 26.2153 39.2999 34.6209 39.6564C38.8328 39.8349 42.9071 40.4506 46.2162 41.6717C49.4768 42.8748 52.3649 44.8101 53.5463 47.875C57.6015 58.3953 50.001 70.3156 37.8756 74.9894C33.9198 76.5142 29.872 77.1412 26.0581 76.9552C25.4779 76.927 24.9386 76.6477 24.5805 76.1902C24.2225 75.7327 24.0811 75.142 24.1931 74.572C24.6507 72.2434 24.279 69.8727 23.0065 67.862C21.5104 65.4979 19.0228 64.0385 16.1946 63.68C15.1018 63.5414 14.3267 62.5454 14.461 61.4521C14.5044 61.0989 14.5267 60.7395 14.5267 60.3746C14.5267 57.2697 12.8954 54.4446 10.2436 52.6226C9.70065 52.2495 9.37622 51.633 9.37622 50.9742L9.37617 44.8751ZM11.3762 44.875C22.9062 40.4307 48.1715 39.4917 51.6802 48.5943C55.1888 57.6969 48.6863 68.6789 37.1562 73.1233C34.1559 74.2798 31.1108 74.8796 28.1856 74.9738C27.5016 74.9958 26.8243 74.9902 26.1556 74.9576C26.2853 74.2976 26.3597 73.6313 26.3769 72.9657C26.4324 70.8213 25.894 68.6847 24.6965 66.7925C22.8483 63.8721 19.8022 62.1213 16.4461 61.6958C16.4994 61.2621 16.5267 60.8213 16.5267 60.3746C16.5267 56.5346 14.5049 53.1239 11.3762 50.9742L11.3762 44.875Z" fill="#673512" fill-rule="evenodd"/><path clip-rule="evenodd" d="M25.125 68.2371C25.6772 68.2371 26.125 68.6848 26.125 69.2371V74.9871C26.125 75.5393 25.6772 75.9871 25.125 75.9871C24.5727 75.9871 24.125 75.5393 24.125 74.9871V69.2371C24.125 68.6848 24.5727 68.2371 25.125 68.2371Z" fill="#673512" fill-rule="evenodd"/><path clip-rule="evenodd" d="M11.3762 49.5576C23.7742 47.4916 39.9266 48.4508 42.68 55.5943C44.7907 61.07 43.2786 67.2258 39.2287 72.2294C49.4494 67.333 54.9727 57.1361 51.6802 48.5943C48.1715 39.4916 22.9062 40.4307 11.3762 44.875L11.3762 49.5576Z" fill="#9D5622" fill-rule="evenodd"/><path clip-rule="evenodd" d="M37.1563 67.1232C48.6863 62.6789 55.1889 51.6969 51.6802 42.5943C48.1715 33.4916 35.9802 29.7153 24.4502 34.1596C18.557 36.4312 13.9772 40.4107 11.3763 44.9742C14.5049 47.1238 16.5267 50.5345 16.5267 54.3746C16.5267 54.8212 16.4994 55.2621 16.4461 55.6958C19.8023 56.1212 22.8484 57.872 24.6965 60.7924C26.2657 63.272 26.7032 66.171 26.1556 68.9576C29.6845 69.1296 33.4545 68.5501 37.1563 67.1232Z" fill="#CC7A3D" fill-rule="evenodd"/><path clip-rule="evenodd" d="M10.2437 46.6226C9.38686 46.0339 9.1239 44.887 9.63866 43.9839C12.4856 38.9888 17.442 34.7176 23.7309 32.2936C35.8563 27.6197 49.4912 31.3547 53.5463 41.875C57.6015 52.3954 50.001 64.3156 37.8756 68.9895C33.9198 70.5143 29.872 71.1412 26.0582 70.9553C25.4779 70.927 24.9386 70.6478 24.5805 70.1902C24.2225 69.7327 24.0811 69.1421 24.1931 68.572C24.6507 66.2435 24.279 63.8727 23.0065 61.862C21.5104 59.4979 19.0228 58.0385 16.1946 57.68C15.1018 57.5415 14.3268 56.5454 14.461 55.4521C14.5044 55.099 14.5267 54.7395 14.5267 54.3746C14.5267 51.2698 12.8955 48.4447 10.2437 46.6226ZM11.3762 44.9742C13.9772 40.4107 18.557 36.4313 24.4502 34.1597C35.9802 29.7154 48.1715 33.4917 51.6802 42.5943C55.1889 51.697 48.6863 62.679 37.1563 67.1233C34.1559 68.2798 31.1108 68.8797 28.1856 68.9739C27.5017 68.9959 26.8243 68.9903 26.1556 68.9576C26.2853 68.2976 26.3597 67.6313 26.3769 66.9657C26.4324 64.8213 25.894 62.6847 24.6965 60.7925C22.8484 57.8721 19.8022 56.1213 16.4461 55.6959C16.4994 55.2621 16.5267 54.8213 16.5267 54.3746C16.5267 50.5346 14.5049 47.1239 11.3762 44.9742Z" fill="#773E15" fill-rule="evenodd"/><path clip-rule="evenodd" d="M13.5175 44.1105C13.8016 43.637 14.4159 43.4834 14.8894 43.7675C16.8917 44.9689 18.2196 47.0055 19.072 48.9483C19.7659 50.5301 20.1798 52.1297 20.3839 53.3492C23.3633 53.8576 25.5508 55.967 27.0576 58.2753C28.4663 60.4331 29.3688 62.8905 29.8404 64.776C32.8918 64.3206 39.0185 62.566 44.3698 58.2235C44.7987 57.8755 45.4285 57.9411 45.7765 58.3699C46.1245 58.7988 46.0589 59.4285 45.6301 59.7765C39.3474 64.8748 32.0794 66.6289 29.1449 66.8716L28.2538 66.9453L28.0812 66.068C27.7353 64.3087 26.8592 61.63 25.3829 59.3685C23.9002 57.0972 21.9322 55.4172 19.4323 55.2477L18.595 55.191L18.5056 54.3566C18.3904 53.2814 18.0078 51.501 17.2404 49.7518C16.4678 47.9904 15.3582 46.3812 13.8605 45.4825C13.3869 45.1984 13.2333 44.5841 13.5175 44.1105Z" fill="#E08847" fill-rule="evenodd"/><path clip-rule="evenodd" d="M37.5978 63.4884C37.8047 64.0004 37.5574 64.5833 37.0453 64.7902C33.711 66.1377 30.7834 66.7361 29.1449 66.8716C28.5945 66.9171 28.1114 66.5078 28.0659 65.9574C28.0203 65.407 28.4296 64.9239 28.98 64.8784C30.3936 64.7615 33.1243 64.2176 36.296 62.9359C36.808 62.729 37.3909 62.9763 37.5978 63.4884Z" fill="#F29754" fill-rule="evenodd"/><path d="M33.4784 37.242C33.4595 38.1448 32.5087 38.8571 31.3546 38.8329C30.2006 38.8087 29.2804 38.0573 29.2993 37.1545C29.3183 36.2517 30.2691 35.5395 31.4231 35.5636C32.5771 35.5878 33.4973 36.3392 33.4784 37.242Z" fill="#BE6E34"/><path d="M38.6159 37.5189C38.603 38.1369 37.9521 38.6244 37.1621 38.6079C36.3721 38.5914 35.7422 38.077 35.7552 37.459C35.7681 36.841 36.419 36.3534 37.209 36.3699C37.999 36.3865 38.6289 36.9009 38.6159 37.5189Z" fill="#BE6E34"/><path d="M44.8966 39.5098C44.8836 40.1278 44.2327 40.6154 43.4427 40.5989C42.6528 40.5823 42.0228 40.0679 42.0358 39.4499C42.0487 38.8319 42.6996 38.3443 43.4896 38.3609C44.2796 38.3774 44.9095 38.8918 44.8966 39.5098Z" fill="#BE6E34"/><path d="M40.1788 40.4983C40.1692 40.9583 39.6846 41.3212 39.0966 41.3089C38.5086 41.2966 38.0397 40.9137 38.0493 40.4537C38.0589 39.9937 38.5434 39.6307 39.1315 39.643C39.7195 39.6553 40.1884 40.0382 40.1788 40.4983Z" fill="#BE6E34"/><path d="M35.2092 34.2575C35.1996 34.7176 34.715 35.0805 34.127 35.0682C33.539 35.0559 33.0701 34.673 33.0797 34.213C33.0893 33.7529 33.5738 33.39 34.1619 33.4023C34.7499 33.4146 35.2188 33.7975 35.2092 34.2575Z" fill="#BE6E34"/><path d="M41.9626 35.9233C41.953 36.3833 41.4685 36.7463 40.8804 36.734C40.2924 36.7217 39.8235 36.3388 39.8331 35.8787C39.8427 35.4187 40.3272 35.0558 40.9153 35.0681C41.5033 35.0804 41.9722 35.4633 41.9626 35.9233Z" fill="#BE6E34"/><path d="M48.8829 40.6511C48.8733 41.1111 48.3887 41.4741 47.8007 41.4618C47.2127 41.4494 46.7438 41.0665 46.7534 40.6065C46.763 40.1465 47.2475 39.7835 47.8356 39.7959C48.4236 39.8082 48.8925 40.1911 48.8829 40.6511Z" fill="#BE6E34"/><path d="M23.4839 41.0435C23.4791 41.2726 23.2378 41.4533 22.9449 41.4472C22.652 41.4411 22.4185 41.2504 22.4233 41.0213C22.4281 40.7922 22.6694 40.6114 22.9623 40.6175C23.2551 40.6237 23.4886 40.8144 23.4839 41.0435Z" fill="#BE6E34"/><path d="M26.6638 35.9681C26.6541 36.4281 26.1696 36.7911 25.5816 36.7788C24.9935 36.7665 24.5246 36.3836 24.5343 35.9235C24.5439 35.4635 25.0284 35.1006 25.6164 35.1129C26.2045 35.1252 26.6734 35.5081 26.6638 35.9681Z" fill="#BE6E34"/><path d="M28.2225 39.2376C28.2129 39.6977 27.7283 40.0606 27.1403 40.0483C26.5523 40.036 26.0834 39.6531 26.093 39.1931C26.1026 38.733 26.5871 38.3701 27.1752 38.3824C27.7632 38.3947 28.2321 38.7776 28.2225 39.2376Z" fill="#BE6E34"/><path d="M43.4999 43.0422C43.4903 43.5022 43.0057 43.8652 42.4177 43.8529C41.8296 43.8406 41.3607 43.4577 41.3704 42.9976C41.38 42.5376 41.8645 42.1747 42.4526 42.187C43.0406 42.1993 43.5095 42.5822 43.4999 43.0422Z" fill="#BE6E34"/><path d="M23.6076 38.1758C23.5979 38.6358 23.1134 38.9987 22.5254 38.9864C21.9373 38.9741 21.4684 38.5912 21.4781 38.1312C21.4877 37.6711 21.9722 37.3082 22.5603 37.3205C23.1483 37.3328 23.6172 37.7157 23.6076 38.1758Z" fill="#BE6E34"/><path d="M35.6955 41.0942C35.6837 41.6584 35.0894 42.1036 34.3682 42.0885C33.6469 42.0734 33.0717 41.6037 33.0836 41.0395C33.0954 40.4752 33.6897 40.0301 34.4109 40.0452C35.1322 40.0603 35.7073 40.5299 35.6955 41.0942Z" fill="#BE6E34"/><path d="M62.5364 33.0242C61.8398 34.41 59.8391 34.8115 58.0676 33.921C56.2962 33.0305 55.4249 31.1852 56.1216 29.7995C56.8182 28.4137 58.819 28.0122 60.5904 28.9027C62.3618 29.7932 63.2331 31.6385 62.5364 33.0242Z" fill="#3C1D0C"/><path d="M72.3266 29.951C71.921 30.7578 70.7562 30.9915 69.7249 30.4731C68.6936 29.9546 68.1864 28.8804 68.5919 28.0736C68.9975 27.2668 70.1623 27.0331 71.1936 27.5515C72.2249 28.0699 72.7321 29.1442 72.3266 29.951Z" fill="#D78346"/><path d="M76.8449 32.4119C76.5672 32.9642 75.7699 33.1242 75.0639 32.7693C74.3579 32.4144 74.0107 31.679 74.2883 31.1267C74.5659 30.5744 75.3633 30.4144 76.0693 30.7693C76.7753 31.1242 77.1225 31.8596 76.8449 32.4119Z" fill="#D78346"/><path d="M81.6574 36.9119C81.3797 37.4642 80.5824 37.6242 79.8764 37.2693C79.1704 36.9144 78.8232 36.179 79.1008 35.6267C79.3784 35.0744 80.1758 34.9144 80.8818 35.2693C81.5878 35.6242 81.935 36.3596 81.6574 36.9119Z" fill="#D78346"/><path d="M76.9734 35.7738C76.7668 36.1849 76.1732 36.304 75.6477 36.0398C75.1222 35.7757 74.8637 35.2282 75.0704 34.8171C75.277 34.406 75.8706 34.2869 76.3961 34.5511C76.9216 34.8153 77.1801 35.3627 76.9734 35.7738Z" fill="#D78346"/><path d="M66.7234 25.8685C66.5168 26.2796 65.9232 26.3987 65.3977 26.1346C64.8722 25.8704 64.6137 25.323 64.8204 24.9119C65.027 24.5007 65.6206 24.3816 66.1461 24.6458C66.6716 24.91 66.9301 25.4574 66.7234 25.8685Z" fill="#D78346"/><path d="M66.7234 29.4906C66.5168 29.9017 65.9232 30.0208 65.3977 29.7566C64.8722 29.4925 64.6137 28.945 64.8204 28.5339C65.027 28.1228 65.6206 28.0037 66.1461 28.2679C66.6716 28.5321 66.9301 29.0795 66.7234 29.4906Z" fill="#D78346"/><path d="M78.8765 39.4994C78.6698 39.9105 78.0763 40.0296 77.5508 39.7654C77.0253 39.5012 76.7668 38.9538 76.9735 38.5427C77.1801 38.1316 77.7737 38.0125 78.2992 38.2767C78.8247 38.5408 79.0832 39.0883 78.8765 39.4994Z" fill="#D78346"/><path d="M63.0147 26.546C62.808 26.9571 62.2145 27.0762 61.689 26.812C61.1635 26.5479 60.905 26.0005 61.1117 25.5893C61.3183 25.1782 61.9119 25.0591 62.4374 25.3233C62.9629 25.5875 63.2214 26.1349 63.0147 26.546Z" fill="#D78346"/><path d="M72.6701 34.3823C72.4167 34.8866 71.6886 35.0327 71.0441 34.7086C70.3995 34.3846 70.0825 33.7132 70.3359 33.2089C70.5894 32.7047 71.3174 32.5586 71.962 32.8826C72.6066 33.2066 72.9236 33.8781 72.6701 34.3823Z" fill="#D78346"/><path d="M27.6786 44.032C28.1251 45.2105 27.2659 46.6286 25.7595 47.1995C24.253 47.7703 22.6698 47.2777 22.2232 46.0992C21.7766 44.9207 22.6358 43.5026 24.1423 42.9317C25.6488 42.3609 27.232 42.8535 27.6786 44.032Z" fill="#3C1D0C"/><path d="M44.9151 48.2383C45.4647 49.6887 44.4072 51.434 42.5532 52.1365C40.6992 52.8391 38.7507 52.2328 38.2011 50.7824C37.6515 49.332 38.709 47.5867 40.563 46.8842C42.417 46.1817 44.3655 46.7879 44.9151 48.2383Z" fill="#3C1D0C"/><path d="M31.5031 55.3442C31.8432 56.2415 31.1889 57.3213 30.0419 57.7559C28.8949 58.1906 27.6894 57.8155 27.3494 56.9182C27.0094 56.0209 27.6636 54.9411 28.8106 54.5065C29.9576 54.0718 31.1631 54.4469 31.5031 55.3442Z" fill="#3C1D0C"/><path d="M65.5962 48.5103C64.8996 49.8961 62.8988 50.2976 61.1274 49.4071C59.356 48.5166 58.4847 46.6713 59.1814 45.2855C59.878 43.8998 61.8787 43.4983 63.6502 44.3888C65.4216 45.2793 66.2929 47.1245 65.5962 48.5103Z" fill="#3C1D0C"/><path d="M79.5497 44.9776C78.8531 46.3634 76.8523 46.7649 75.0809 45.8744C73.3095 44.9839 72.4382 43.1386 73.1348 41.7528C73.8315 40.367 75.8322 39.9655 77.6036 40.856C79.3751 41.7465 80.2463 43.5918 79.5497 44.9776Z" fill="#3C1D0C"/></svg>