<?xml version="1.0" ?><!DOCTYPE svg  PUBLIC '-//W3C//DTD SVG 1.1//EN'  'http://www.w3.org/Graphics/SVG/1.1/DTD/svg11.dtd'><svg height="512px" style="enable-background:new 0 0 512 512;" version="1.1" viewBox="0 0 512 512" width="512px" xml:space="preserve" xmlns="http://www.w3.org/2000/svg" xmlns:xlink="http://www.w3.org/1999/xlink"><g id="_x36_43_x2C__cake_x2C__love_x2C__heart_x2C__wedding"><g><path d="M410.04,138.389c7.51,0,13.59,6.09,13.59,13.59c0,7.51-6.08,13.6-13.59,13.6    s-13.59-6.09-13.59-13.6C396.45,144.479,402.53,138.389,410.04,138.389z" style="fill:#EF3E5C;"/><path d="M399.95,160.229c0-7.5,6.08-13.59,13.59-13.59c3.987,0,7.561,1.728,10.046,4.461    c-0.456-7.089-6.333-12.711-13.546-12.711c-7.51,0-13.59,6.09-13.59,13.59c0,3.522,1.35,6.722,3.545,9.138    C399.976,160.822,399.95,160.529,399.95,160.229z" style="fill:#D62B50;"/><path d="M83.84,192.759c7.5,0,13.59,6.08,13.59,13.59c0,7.51-6.09,13.59-13.59,13.59    c-7.51,0-13.59-6.08-13.59-13.59C70.25,198.839,76.33,192.759,83.84,192.759z" style="fill:#EF3E5C;"/><path d="M75.25,216.349c0-7.51,6.08-13.59,13.59-13.59c3.245,0,6.225,1.142,8.563,3.042    c-0.29-7.254-6.247-13.042-13.563-13.042c-7.51,0-13.59,6.08-13.59,13.59c0,4.262,1.961,8.06,5.027,10.551    C75.271,216.716,75.25,216.535,75.25,216.349z" style="fill:#D62B50;"/><path d="M218.17,64.449c10.149,10.16,4.85,27.02,3.93,48.25c-21.22,0.92-38.08,6.21-48.229-3.95    c-5.61-5.6-5.2-15.11,0.92-21.22c5.529-5.54,10.84-5.77,18.68-3.46c-2.31-7.85-2.08-13.15,3.46-18.69    C203.05,59.259,212.56,58.849,218.17,64.449z" style="fill:#EF3E5C;"/><g><path d="M218.17,64.449c-5.61-5.6-15.12-5.19-21.24,0.93c-1.792,1.792-3.021,3.562-3.796,5.398     c5.518-2.43,11.914-1.61,16.119,2.588c8.779,8.788,6.001,22.592,4.495,39.898c2.701-0.235,5.485-0.44,8.352-0.564     C223.02,91.469,228.319,74.609,218.17,64.449z" style="fill:#D62B50;"/></g><path d="M326.04,81.079c8.77,8.77,9.35,22.38,1.33,30.41c-14.54,14.54-38.69,6.94-69.08,5.63    c-1.32-30.39-8.891-54.52,5.65-69.06c8.02-8.03,21.64-7.44,30.39,1.31c7.93,7.93,8.25,15.53,4.95,26.76    C310.51,72.819,318.11,73.149,326.04,81.079z" style="fill:#EF3E5C;"/><g><path d="M274.065,58.934c6.612-6.622,17.027-7.367,25.386-2.525c-1.117-2.385-2.78-4.7-5.121-7.041     c-8.75-8.75-22.37-9.34-30.39-1.31c-14.541,14.54-6.971,38.67-5.65,69.06c3.227,0.139,6.377,0.352,9.459,0.598     C265.64,92.159,261.206,71.793,274.065,58.934z" style="fill:#D62B50;"/></g><path d="M369.24,183.699c0.02,0.53,0.029,1.05,0.029,1.58v52.79h-226.54v-52.79    c0-20.89,16.94-37.83,37.84-37.83h150.86C351.8,147.449,368.41,163.539,369.24,183.699z" style="fill:#FBB14F;"/><path d="M150.729,194.612c0-20.89,16.94-37.83,37.84-37.83h150.86c9.28,0,17.774,3.348,24.357,8.89    c-6.638-10.921-18.641-18.223-32.357-18.223h-150.86c-20.899,0-37.84,16.94-37.84,37.83v52.79h8V194.612z" style="fill:#E5993E;"/><path d="M97.43,283.369v-8.52c0-20.321,18.53-36.781,41.38-36.781h3.92h226.54h3.921    c22.859,0,41.38,16.46,41.38,36.781v51.809c0,0-42.28-36.24-84.57,0c-42.29,36.25-74-9.059-74-9.059s-31.71,45.309-74,9.059    c-42.29-36.24-84.57,0-84.57,0V283.369z" style="fill:#924B35;"/><path d="M104.764,294.035v-8.52c0-20.32,18.529-36.78,41.38-36.78h3.92h226.54h3.92    c12.422,0,23.555,4.867,31.139,12.567c-6.068-13.61-20.997-23.234-38.472-23.234h-3.921h-226.54h-3.92    c-22.85,0-41.38,16.46-41.38,36.781v8.52v43.289c0,0,2.669-2.287,7.334-5.137V294.035z" style="fill:#743629;"/><path d="M414.57,350.828v32.211H97.43v-32.211v-24.17c0,0,42.28-36.24,84.57,0    c42.29,36.25,74-9.059,74-9.059s31.71,45.309,74,9.059c42.29-36.24,84.57,0,84.57,0V350.828z" style="fill:#743629;"/><g><path d="M106.96,358.496v-24.17c0,0,42.28-36.24,84.57,0c37.601,32.23,66.835-0.012,72.857-7.561     C259.003,321.887,256,317.6,256,317.6s-31.71,45.309-74,9.059c-42.29-36.24-84.57,0-84.57,0v24.17v32.211h9.53V358.496z" style="fill:#5E281F;"/></g><polygon points="450.82,383.039 405.51,419.289 260.53,419.289 106.49,419.289 61.18,383.039     97.43,383.039 414.57,383.039   " style="fill:#FFC592;"/><polygon points="83.84,393.373 120.09,393.373 437.23,393.373 437.903,393.373 450.82,383.039     414.57,383.039 97.43,383.039 61.18,383.039 106.49,419.289 116.233,419.289   " style="fill:#EFA873;"/><path d="M383.302,288.369H102.402c-2.762,0-5-2.238-5-5s2.238-5,5-5h280.899c2.762,0,5,2.238,5,5    S386.063,288.369,383.302,288.369z" style="fill:#743629;"/><path d="M260.53,469.6c-2.762,0-5-2.238-5-5v-45.311c0-2.762,2.238-5,5-5s5,2.238,5,5V464.6    C265.53,467.361,263.292,469.6,260.53,469.6z" style="fill:#FFC592;"/><path d="M333.02,469.6H188.04c-2.762,0-5-2.238-5-5s2.238-5,5-5H333.02c2.762,0,5,2.238,5,5    S335.781,469.6,333.02,469.6z" style="fill:#FFC592;"/><path d="M339.603,188.699h-190.29c-2.761,0-5-2.239-5-5s2.239-5,5-5h190.261c2.762,0,5.015,2.239,5.015,5    S342.364,188.699,339.603,188.699z" style="fill:#E5993E;"/></g></g><g id="Layer_1"/></svg>