<?xml version="1.0" ?><svg viewBox="0 0 24 24" xmlns="http://www.w3.org/2000/svg" xmlns:xlink="http://www.w3.org/1999/xlink"><defs><linearGradient gradientUnits="userSpaceOnUse" id="a" x1="3.63968" x2="20.36032" y1="6.16122" y2="22.88186"><stop offset="0" stop-color="#fff" stop-opacity="0"/><stop offset="1" stop-color="#fff" stop-opacity="0.1"/></linearGradient></defs><title/><path d="M20.86328,8H15.98389a4.92634,4.92634,0,0,0,.92285-3.9707A5.00094,5.00094,0,0,0,7,5,4.92677,4.92677,0,0,0,8.019,8H3.13672a3.10139,3.10139,0,0,0-3.1211,2.69238A3.00027,3.00027,0,0,0,3,14H5.896a1.08533,1.08533,0,0,1,.7998,1.81885L3.96143,18.80811c-.01856.01367-.064.05224-.08057.06884a1.27015,1.27015,0,0,0-.12549.14991l-.124.13525a.47867.47867,0,0,0-.08252.12646,3.00784,3.00784,0,0,0,.33008,3.83252,3.05474,3.05474,0,0,0,4.26269-.02148l2.3291-2.62354a2.11167,2.11167,0,0,1,3.0586,0l2.34961,2.645a2.99418,2.99418,0,0,0,4.57763-3.82519.50356.50356,0,0,0-.08789-.13379l-.13818-.1543a.90072.90072,0,0,0-.14649-.15625L17.3042,15.81885A1.08533,1.08533,0,0,1,18.104,14H21a3.00027,3.00027,0,0,0,2.98438-3.30762A3.10139,3.10139,0,0,0,20.86328,8Z"/><path d="M1.5166,12.34131A1.9863,1.9863,0,0,1,1.01074,10.792,2.09361,2.09361,0,0,1,3.13672,9h.91742a2.42525,2.42525,0,0,0,.55572,1.05469A1.29,1.29,0,0,1,5,10.99121a1.31292,1.31292,0,0,1-.39062.93994A2.43255,2.43255,0,0,0,4.05292,13H3A2.005,2.005,0,0,1,1.5166,12.34131Z" fill="#fff"/><path d="M7.41406,22.41406a2.04706,2.04706,0,0,1-2.82812,0,2.00308,2.00308,0,0,1-.17823-2.60693q.01612-.022.0293-.044l.06494-.07129c.00733-.0083.05127-.07373.05811-.08252a.87567.87567,0,0,0,.09326-.082l.78137-.85247a3.02342,3.02342,0,0,1,.06092.373,2.30828,2.30828,0,0,0,2.21,2.21,1.746,1.746,0,0,1,.6037.14722Z" fill="#fff"/><path d="M19.43311,19.61084c.00976.0127.06347.08008.07421.0918l.05518.06006c.00928.01513.019.02978.02979.04443a2.00308,2.00308,0,0,1-.17823,2.60693,2.06458,2.06458,0,0,1-2.80761.02149l-.97895-1.10273a2.62058,2.62058,0,0,1,.41986-.07208,2.30921,2.30921,0,0,0,2.21045-2.21,1.85508,1.85508,0,0,1,.13025-.56927l.95862,1.04583C19.355,19.53613,19.42432,19.60254,19.43311,19.61084Z" fill="#fff"/><path d="M16.19531,14.24561a2.06,2.06,0,0,0,.37158,2.249l1.11945,1.22131a2.4061,2.4061,0,0,0-.42218,1.22351,1.31177,1.31177,0,0,1-.38867.94092,1.29066,1.29066,0,0,1-.938.38623,2.59854,2.59854,0,0,0-1.00616.28211l-.654-.7367a3.04547,3.04547,0,0,0-4.55468,0l-.73682.83045a2.42422,2.42422,0,0,0-1.16943-.3783,1.31255,1.31255,0,0,1-.94092-.38867,1.28711,1.28711,0,0,1-.38574-.9375,2.49949,2.49949,0,0,0-.31385-1.07178l1.25721-1.37158A2.08544,2.08544,0,0,0,5.896,13H5.09753a2.04138,2.04138,0,0,1,.29309-.44482,2.30784,2.30784,0,0,0-.00048-3.12549A2.1042,2.1042,0,0,1,5.10022,9H9.20361a.50024.50024,0,0,0,.3125-.89063A3.97339,3.97339,0,0,1,9.47656,1.896a4.03024,4.03024,0,0,1,3.38379-.80664,3.98464,3.98464,0,0,1,1.62354,7.0205A.5.5,0,0,0,14.79639,9h4.10339a2.1042,2.1042,0,0,1-.28992.42969,2.30784,2.30784,0,0,0-.00048,3.12549A2.04138,2.04138,0,0,1,18.90247,13H18.104A2.05893,2.05893,0,0,0,16.19531,14.24561Z" fill="#93450e"/><path d="M22.4834,12.34131A2.005,2.005,0,0,1,21,13H19.94714a2.43248,2.43248,0,0,0-.55652-1.06885A1.31292,1.31292,0,0,1,19,10.99121a1.29,1.29,0,0,1,.39014-.93652A2.42525,2.42525,0,0,0,19.94586,9h.91742a2.09361,2.09361,0,0,1,2.126,1.792A1.9863,1.9863,0,0,1,22.4834,12.34131Z" fill="#fff"/><path d="M19.59229,19.80713c-.01075-.01465-.02051-.0293-.02979-.04443l-.05518-.06006c-.01074-.01172-.06445-.0791-.07421-.0918-.00879-.0083-.07813-.07471-.08643-.0835l-.95862-1.04583a1.85508,1.85508,0,0,0-.13025.56927c-.01025.09174-.02319.19049-.03924.291l.1474.18554c.0072.00879.06726.0752.07489.0835.00842.0127.055.08008.06427.0918l.04785.06006c.00806.01513.01648.02978.02582.04443a2.23843,2.23843,0,0,1-.15448,2.60693,1.60915,1.60915,0,0,1-.858.51532,2.0529,2.0529,0,0,0,1.84778-.51532A2.00308,2.00308,0,0,0,19.59229,19.80713Z" opacity="0.2"/><path d="M20.86328,9h-.91742c-.00207.00964-.00592.017-.00812.02655A1.93408,1.93408,0,0,1,21.52228,10.792a2.18893,2.18893,0,0,1-.43836,1.54932,1.65472,1.65472,0,0,1-1.142.64117L19.94714,13H21a2.00037,2.00037,0,0,0,1.98926-2.208A2.09361,2.09361,0,0,0,20.86328,9Z" opacity="0.2"/><circle cx="10" cy="4" fill="#fff" r="0.5"/><circle cx="14" cy="4" fill="#fff" r="0.5"/><path d="M13.2002,6.59424a1.9865,1.9865,0,0,1-2.4004,0,.4998.4998,0,1,0-.5996.7998,2.97583,2.97583,0,0,0,3.5996,0,.4998.4998,0,1,0-.5996-.7998Z" fill="#fff"/><circle cx="12" cy="13.5" fill="#fff" r="0.5"/><circle cx="12" cy="10.5" fill="#fff" r="0.5"/><circle cx="12" cy="16.5" fill="#fff" r="0.5"/><path d="M20.86328,8H15.98389a4.92634,4.92634,0,0,0,.92285-3.9707A5.00094,5.00094,0,0,0,7,5,4.92677,4.92677,0,0,0,8.019,8H3.13672a3.10139,3.10139,0,0,0-3.1211,2.69238A3.00027,3.00027,0,0,0,3,14H5.896a1.08533,1.08533,0,0,1,.7998,1.81885L3.96143,18.80811c-.01856.01367-.064.05224-.08057.06884a1.27015,1.27015,0,0,0-.12549.14991l-.124.13525a.47867.47867,0,0,0-.08252.12646,3.00784,3.00784,0,0,0,.33008,3.83252,3.05474,3.05474,0,0,0,4.26269-.02148l2.3291-2.62354a2.11167,2.11167,0,0,1,3.0586,0l2.34961,2.645a2.99418,2.99418,0,0,0,4.57763-3.82519.50356.50356,0,0,0-.08789-.13379l-.13818-.1543a.90072.90072,0,0,0-.14649-.15625L17.3042,15.81885A1.08533,1.08533,0,0,1,18.104,14H21a3.00027,3.00027,0,0,0,2.98438-3.30762A3.10139,3.10139,0,0,0,20.86328,8Z" fill="url(#a)"/></svg>