<?xml version="1.0" ?><svg height="512px" version="1.1" viewBox="0 0 512 512" width="512px" xmlns="http://www.w3.org/2000/svg" xmlns:xlink="http://www.w3.org/1999/xlink"><title/><desc/><defs/><g fill="none" fill-rule="evenodd" id="SVG" stroke="none" stroke-width="1"><g id="Cake"><g id="9" transform="translate(0.000000, 50.000000)"><path d="M39.5277474,259.959867 L471.231326,259.959867 L471.231326,366.419965 C471.231326,384.124002 456.888589,398.471888 439.190905,398.471888 L71.5681684,398.471888 C53.8704842,398.471888 39.5277474,384.124002 39.5277474,366.419965 L39.5277474,259.959867 L39.5277474,259.959867 Z" fill="#F8E6C4" id="Fill-1"/><path d="M468.614063,181.347741 L42.1450105,181.347741 C24.4473263,181.347741 10.1045895,193.033619 10.1045895,207.448897 L10.1045895,256.2681 C10.1045895,274.369754 28.1121684,289.041124 50.3302737,289.041124 C72.5483789,289.041124 90.5559579,274.369754 90.5559579,256.2681 L92.1256421,256.2681 C92.1256421,274.369754 110.133221,289.041124 132.351326,289.041124 C154.569432,289.041124 172.577011,274.369754 172.577011,256.2681 L174.139958,256.2681 C174.139958,274.369754 192.154274,289.041124 214.372379,289.041124 C236.583747,289.041124 254.598063,274.369754 254.598063,256.2681 L256.161011,256.2681 C256.161011,274.369754 274.175326,289.041124 296.386695,289.041124 C318.6048,289.041124 336.619116,274.369754 336.619116,256.2681 L338.182063,256.2681 C338.182063,274.369754 356.189642,289.041124 378.407747,289.041124 C400.625853,289.041124 418.633432,274.369754 418.633432,256.2681 L420.203116,256.2681 C420.203116,274.369754 438.210695,289.041124 460.4288,289.041124 C482.646905,289.041124 500.654484,274.369754 500.654484,256.2681 L500.654484,207.448897 C500.654484,193.033619 486.311747,181.347741 468.614063,181.347741" fill="#EE64A4" id="Fill-3"/><polygon fill="#F8E6C4" id="Fill-5" points="233.761684 181.06941 277.557895 181.06941 277.557895 111.911118 233.761684 111.911118"/><path d="M277.458863,70.8299342 C277.458863,82.8729927 267.697179,92.6381812 255.658442,92.6381812 C243.619705,92.6381812 233.864758,82.8729927 233.864758,70.8299342 C233.864758,58.7868757 255.658442,13.8494867 255.658442,13.8494867 C255.658442,13.8494867 277.458863,58.7868757 277.458863,70.8299342" fill="#FBAE3A" id="Fill-7"/><path d="M471.231326,366.419291 L471.231326,287.812557 C488.194695,283.9577 500.657853,271.314847 500.657853,256.272818 L500.657853,207.446875 C500.657853,193.031597 486.308379,181.345719 468.617432,181.345719 L420.199747,181.345719 L420.199747,256.272818 C419.081432,384.406377 318.022063,398.471214 318.022063,398.471214 L439.190905,398.471214 C456.888589,398.471214 471.231326,384.123328 471.231326,366.419291" fill="#010202" id="Fill-8" opacity="0.15"/><path d="M490.552589,256.268774 C490.552589,268.763363 477.038484,278.932907 460.425432,278.932907 C443.819116,278.932907 430.311747,268.763363 430.311747,256.268774 C430.311747,250.688666 425.784589,246.159883 420.206484,246.159883 L418.6368,246.159883 C413.058695,246.159883 408.531537,250.688666 408.531537,256.268774 C408.531537,268.763363 395.017432,278.932907 378.411116,278.932907 C361.8048,278.932907 348.290695,268.763363 348.290695,256.268774 C348.290695,250.688666 343.763537,246.159883 338.185432,246.159883 L336.615747,246.159883 C331.037642,246.159883 326.510484,250.688666 326.510484,256.268774 C326.510484,268.763363 313.003116,278.932907 296.390063,278.932907 C279.783747,278.932907 266.269642,268.763363 266.269642,256.268774 C266.269642,250.688666 261.742484,246.159883 256.164379,246.159883 L254.601432,246.159883 C249.016589,246.159883 244.496168,250.688666 244.496168,256.268774 C244.496168,268.763363 230.982063,278.932907 214.369011,278.932907 C197.762695,278.932907 184.248589,268.763363 184.248589,256.268774 C184.248589,250.688666 179.721432,246.159883 174.143326,246.159883 L172.580379,246.159883 C167.002274,246.159883 162.475116,250.688666 162.475116,256.268774 C162.475116,268.763363 148.961011,278.932907 132.347958,278.932907 C115.741642,278.932907 102.227537,268.763363 102.227537,256.268774 C102.227537,250.688666 97.7071158,246.159883 92.1222737,246.159883 L90.5593263,246.159883 C84.9812211,246.159883 80.4540632,250.688666 80.4540632,256.268774 C80.4540632,268.763363 66.9399579,278.932907 50.3269053,278.932907 C33.7205895,278.932907 20.2132211,268.763363 20.2132211,256.268774 L20.2132211,207.449571 C20.2132211,198.782882 30.2578526,191.457306 42.1416421,191.457306 L468.610695,191.457306 C480.507958,191.457306 490.552589,198.782882 490.552589,207.449571 L490.552589,256.268774 Z M461.126063,299.123731 L461.126063,366.421987 C461.126063,378.518959 451.283537,388.365019 439.190905,388.365019 L71.5681684,388.365019 C59.4755368,388.365019 49.6330105,378.518959 49.6330105,366.421987 L49.6330105,299.123731 L49.6262737,299.123731 C49.8620632,299.123731 50.0911158,299.150689 50.3269053,299.150689 C67.2296421,299.150689 82.2123789,292.020551 91.3408,281.109688 C100.475958,292.020551 115.451958,299.150689 132.347958,299.150689 C149.243958,299.150689 164.233432,292.020551 173.361853,281.109688 C182.490274,292.020551 197.473011,299.150689 214.369011,299.150689 C231.271747,299.150689 246.247747,292.020551 255.382905,281.109688 C264.511326,292.020551 279.494063,299.150689 296.390063,299.150689 C313.286063,299.150689 328.2688,292.020551 337.403958,281.109688 C346.532379,292.020551 361.515116,299.150689 378.411116,299.150689 C395.300379,299.150689 410.289853,292.020551 419.418274,281.109688 C428.553432,292.020551 443.536168,299.150689 460.425432,299.150689 C460.661221,299.150689 460.890274,299.123731 461.126063,299.123731 L461.126063,299.123731 L461.126063,299.123731 Z M243.869642,170.956475 L267.455326,170.956475 L267.455326,122.015966 L243.869642,122.015966 L243.869642,170.956475 Z M243.963958,70.8245428 C243.977432,66.7809865 249.144589,53.005938 255.659116,38.0447797 C262.173642,52.9991988 267.3408,66.7742472 267.354274,70.8245428 C267.354274,77.2740151 262.106274,82.5306383 255.659116,82.5306383 C249.211958,82.5306383 243.963958,77.2740151 243.963958,70.8245428 L243.963958,70.8245428 Z M468.610695,171.239524 L287.665853,171.239524 L287.665853,111.907075 C287.665853,106.326967 283.138695,101.798184 277.560589,101.798184 L263.035958,101.798184 C277.0688,98.4487716 287.5648,85.8733115 287.5648,70.8245428 C287.5648,57.4942855 270.096168,20.4687883 264.747116,9.42987962 C263.056168,5.94568194 259.526063,3.7352045 255.659116,3.7352045 C251.792168,3.7352045 248.255326,5.94568194 246.564379,9.42987962 C241.215326,20.4687883 223.753432,57.4942855 223.753432,70.8245428 C223.753432,85.8733115 234.249432,98.4487716 248.282274,101.798184 L233.764379,101.798184 C228.186274,101.798184 223.659116,106.326967 223.659116,111.907075 L223.659116,171.239524 L42.1416421,171.239524 C18.9062737,171.239524 0.00269473684,187.481142 0.00269473684,207.449571 L0.00269473684,256.268774 C0.00269473684,273.554977 12.0885895,288.448743 29.4224842,295.228439 L29.4224842,366.421987 C29.4224842,389.665696 48.3260632,408.582801 71.5681684,408.582801 L439.190905,408.582801 C462.426274,408.582801 481.336589,389.665696 481.336589,366.421987 L481.336589,295.228439 C498.670484,288.448743 510.763116,273.554977 510.763116,256.268774 L510.763116,207.449571 C510.763116,187.481142 491.8528,171.239524 468.610695,171.239524 L468.610695,171.239524 Z" fill="#2E2E30" id="Fill-9"/></g></g></g></svg>