<?xml version="1.0" encoding="iso-8859-1"?>
<!-- Generator: Adobe Illustrator 16.0.0, SVG Export Plug-In . SVG Version: 6.00 Build 0)  -->
<!DOCTYPE svg PUBLIC "-//W3C//DTD SVG 1.1//EN" "http://www.w3.org/Graphics/SVG/1.1/DTD/svg11.dtd">
<svg version="1.1" id="Capa_1" xmlns="http://www.w3.org/2000/svg" xmlns:xlink="http://www.w3.org/1999/xlink" x="0px" y="0px"
	 width="304.148px" height="304.148px" viewBox="0 0 304.148 304.148" style="enable-background:new 0 0 304.148 304.148;"
	 xml:space="preserve">
<g>
	<g>
		<path d="M219.349,138.281V86.765c0-18.042-7.698-34.972-21.662-47.66c-5.241-4.755-11.126-8.683-17.469-11.732
			c-3.936-1.894-7.276-4.628-7.276-6.571v-3.517C172.941,7.592,163.399,0,151.218,0h-13.825c-12.182,0-21.726,7.592-21.726,17.286
			c0,0,0,1.897,0,4.235c0,2.339-3.286,5.561-7.109,7.663c-21.416,11.73-35.81,33.131-35.81,57.592v51.871
			c0,4.36-1.684,11.004-3.786,14.828c-8.231,14.985-25.974,46.986-35.439,64.068l-2.938,5.286
			c-8.384,15.098-9.369,29.59-2.765,40.802c6.596,11.212,19.748,17.382,37.026,17.382h30.305c4.362,0,9.275,3.331,12.111,6.643
			c8.485,9.896,25.162,16.493,44.816,16.493c19.639,0,36.315-6.597,44.8-16.493c2.844-3.312,7.749-6.643,12.121-6.643h32.388
			c17.382-0.01,30.163-6.022,36.008-16.914c5.85-10.913,3.778-24.877-5.845-39.345l-47.824-71.985
			C221.309,149.128,219.349,142.651,219.349,138.281z M137.385,11.85h13.825c5.654,0,9.874,2.869,9.874,5.436c0,0,0,0.845,0,1.897
			c0,1.041-3.315,1.224-7.472,0.82c-2.496-0.236-5.01-0.363-7.554-0.363c-3.671,0-7.274,0.269-10.791,0.774
			c-4.321,0.617-7.759,0.449-7.759-0.82v-2.308C127.509,14.719,131.729,11.85,137.385,11.85z M123.632,285.669
			c-3.816-2.122-2.821-4.656,1.549-4.656h53.798c4.362,0,5.357,2.544,1.549,4.656c-7.215,4.018-17.438,6.622-28.441,6.622
			C141.067,292.291,130.845,289.687,123.632,285.669z M241.388,269.161H64.847c-12.908,0-22.427-4.108-26.812-11.548
			c-4.385-7.444-3.352-17.763,2.915-29.051c24.451-44.097,35.282-63.643,39.974-72.854c1.975-3.885,3.24-10.75,3.27-15.112
			l0.389-53.832c0-30.478,27.571-55.284,61.461-55.284c16.529,0,32.037,5.814,43.655,16.387
			c11.472,10.42,17.783,24.227,17.783,38.897v55.104c0,4.36,1.96,10.849,4.378,14.48l49.814,74.966
			c7.089,10.654,8.952,20.312,5.271,27.183C263.273,265.368,254.189,269.161,241.388,269.161z"/>
	</g>
</g>
<g>
</g>
<g>
</g>
<g>
</g>
<g>
</g>
<g>
</g>
<g>
</g>
<g>
</g>
<g>
</g>
<g>
</g>
<g>
</g>
<g>
</g>
<g>
</g>
<g>
</g>
<g>
</g>
<g>
</g>
</svg>
